<svg width="186" height="87" viewBox="0 0 186 87" fill="none" xmlns="http://www.w3.org/2000/svg">
<path id="Vector" d="M184.812 0.5V25.1962H150.82H150.32V25.6962V85.851H125.261V25.6962V25.1962H124.761H76.522C75.8971 25.1962 75.2615 25.2688 74.6926 25.4291C74.1296 25.5878 73.594 25.8431 73.211 26.2358C72.8113 26.6458 72.5988 27.1872 72.6814 27.8311C72.7605 28.448 73.1039 29.1124 73.7027 29.8271L73.703 29.8274L90.4718 49.8112C95.2866 55.5496 95.6711 64.5471 92.2286 72.158C88.7972 79.7445 81.6044 85.851 71.3856 85.851H0.5V61.0368H61.5518C62.5602 61.0368 63.3828 60.9414 63.9997 60.722C64.6242 60.4999 65.1074 60.1221 65.2825 59.5273C65.4485 58.9631 65.2938 58.3381 64.9879 57.7122C64.6765 57.0752 64.1684 56.3551 63.4975 55.5558L48.2582 37.399C37.3536 24.4057 46.11 0.5 66.9621 0.5H184.812Z" stroke="white"/>
</svg>
