<svg width="118" height="87" viewBox="0 0 118 87" fill="none" xmlns="http://www.w3.org/2000/svg">
<path id="Vector" d="M32.4452 58.0541L32.445 58.0539C31.4998 57.11 30.6575 56.4157 29.9166 56.0021C29.1872 55.595 28.4569 55.4062 27.8049 55.6628C27.1483 55.9212 26.7552 56.5576 26.5226 57.3485C26.287 58.1499 26.1814 59.2203 26.1814 60.5368V85.851H1.16922L1.2159 0.500689L53.2503 0.570829C53.2503 0.570829 53.2503 0.570829 53.2503 0.570829C67.9145 0.591766 77.0503 9.07764 80.0675 19.2817C83.0915 29.509 79.9752 41.4672 70.0621 48.458L70.062 48.4582C67.5339 50.2427 63.004 52.5448 60.3139 53.7044L59.6392 53.9952L60.1573 54.5162L65.4495 59.8367C65.4766 59.864 65.5034 59.891 65.5299 59.9177C65.8956 60.2865 66.2034 60.597 66.6096 60.7843C67.0539 60.9893 67.5714 61.0321 68.3297 61.0321H116.668V85.8463H67.3666H67.2338C63.8088 85.8464 62.1375 85.8465 60.6022 85.1993C59.0412 84.5413 57.5902 83.1991 54.6809 80.2898L32.4452 58.0541ZM26.6767 21.1786H26.1767V21.6786V43.3148V43.8148H26.6767H47.2506C54.8013 43.8148 59.0164 38.1541 59.2305 32.5157C59.3375 29.6962 58.448 26.8569 56.4597 24.7188C54.4654 22.5743 51.4061 21.1786 47.2601 21.1786H26.6814H26.6767Z" stroke="white"/>
</svg>
