<svg width="187" height="87" viewBox="0 0 187 87" fill="none" xmlns="http://www.w3.org/2000/svg">
<path id="Vector" d="M129.121 56.0692L129.12 56.0689L113.881 37.9074L113.498 38.2288L113.881 37.9074C102.977 24.9141 111.733 1.00837 132.585 1.00837H185.663V25.7045H142.145C141.093 25.7045 140.24 25.7843 139.59 25.9591C138.949 26.1313 138.417 26.4199 138.141 26.9091C137.855 27.4141 137.921 27.9871 138.145 28.5347C138.369 29.0819 138.78 29.6846 139.326 30.3356L139.326 30.3358L156.095 50.3196C160.91 56.058 161.294 65.0554 157.852 72.6663C154.42 80.2528 147.227 86.3594 137.009 86.3594H67.5302H67.3975C63.9725 86.3595 62.3023 86.3596 60.7676 85.7124C59.2072 85.0543 57.7561 83.7122 54.8445 80.8029C54.8444 80.8029 54.8444 80.8028 54.8443 80.8028L32.6088 58.5672C31.6648 57.6233 30.8231 56.9286 30.0824 56.5146C29.3532 56.1071 28.623 55.9179 27.9706 56.1739C27.3136 56.4319 26.9199 57.0681 26.6869 57.8594C26.4509 58.6611 26.345 59.7321 26.345 61.0499V86.3641H1.33282L1.38416 1.01376L53.4186 1.08391C53.4186 1.08391 53.4186 1.08391 53.4186 1.08391C68.0828 1.10484 77.2186 9.59071 80.2358 19.7954C83.2598 30.0232 80.1435 41.9827 70.2303 48.9759L70.2302 48.976C67.7022 50.7605 63.1723 53.0626 60.4822 54.2222L59.8075 54.513L60.3256 55.034L65.6178 60.3545C65.6449 60.3817 65.6717 60.4087 65.6981 60.4354C66.0638 60.8043 66.3716 61.1147 66.7779 61.3021C67.2221 61.5071 67.7397 61.5499 68.498 61.5499H127.175C128.077 61.5499 128.839 61.4435 129.428 61.2076C130.026 60.9682 130.483 60.5776 130.678 60.0055C130.867 59.4492 130.772 58.8257 130.503 58.1888C130.233 57.5482 129.766 56.8391 129.121 56.0692ZM26.8497 21.6917H26.3497V22.1917V43.8279V44.3279H26.8497H47.4236C54.9743 44.3279 59.1894 38.6671 59.4035 33.0288C59.5105 30.2093 58.6211 27.3699 56.6327 25.2319C54.6384 23.0873 51.5792 21.6917 47.4331 21.6917H26.8544H26.8497Z" stroke="white"/>
</svg>
